<?xml version="1.0" encoding="utf-8"?>
<!-- Generator: Adobe Illustrator 23.0.0, SVG Export Plug-In . SVG Version: 6.00 Build 0)  -->
<svg version="1.1" id="Capa_1" xmlns="http://www.w3.org/2000/svg" xmlns:xlink="http://www.w3.org/1999/xlink" x="0px" y="0px"
	 viewBox="0 0 500 500" style="enable-background:new 0 0 500 500;" xml:space="preserve">
<style type="text/css">
	.st0{fill:#2A579E;}
	.st1{fill:#FFFFFF;}
</style>
<rect y="0" class="st0" width="500" height="500"/>
<g>
	<path class="st1" d="M146.5,40.7c11.5,0,23,0,34.5,0c1.2,0,2,0.4,2.7,1.3c22.9,29.4,45.7,58.8,68.6,88.2
		c28.8,36.9,57.5,73.8,86.3,110.8c16.9,21.8,33.9,43.5,50.8,65.3c0.5,0.7,0.9,1.7,0.9,2.6c0.1,3.7,0,7.3,0.1,11
		c0,1.3-0.3,1.8-1.7,1.8c-23.4,0-46.7,0-70.1-0.1c-0.8,0-1.8-0.7-2.3-1.3c-24.2-31.1-48.4-62.2-72.6-93.3c-33-42.5-66-84.9-99-127.3
		C133.3,85,122,70.5,110.7,55.9c-0.6-0.8-1-1.9-1-2.9c-0.1-3.5,0-7-0.1-10.5c0-1.4,0.4-1.8,1.9-1.8
		C123.2,40.7,134.9,40.7,146.5,40.7z"/>
	<path class="st1" d="M390.3,386.5c0,0.9,0,1.6,0,2.2c0,22.8,0,45.6,0,68.3c0,2.3,0,2.3-2.4,2.3c-92,0-183.9,0-275.9,0
		c-2.4,0-2.4,0-2.4-2.3c0-22.8,0-45.6,0-68.3c0-1.7,0.4-2.2,2.2-2.2c92.1,0,184.3,0,276.4,0C388.9,386.5,389.5,386.5,390.3,386.5z"
		/>
	<path class="st1" d="M110.1,114.9c2.8,3.6,5.7,7.3,8.5,10.9c21,27,42,54,63,81c0.5,0.7,0.9,1.7,0.9,2.6c0,36.7,0,73.5,0.1,110.2
		c0,1.6-0.5,2-2,2c-22.9,0-45.8,0-68.7,0c-2.2,0-2.2,0-2.2-2.3c0-25.2,0-50.4,0-75.5c0-42.2,0-84.3,0-126.5c0-0.7,0-1.5,0-2.2
		C109.8,115,109.9,114.9,110.1,114.9z"/>
	<path class="st1" d="M390.2,247.3c-0.5-0.5-0.8-0.9-1.1-1.2c-23.6-30.3-47.2-60.7-70.8-91c-0.6-0.8-0.8-2-0.8-3
		c-0.1-14.1,0-28.3,0-42.4c0-22.2,0-44.4,0-66.6c0-2.4,0-2.4,2.3-2.4c22.8,0,45.6,0,68.3,0c0.7,0,1.3,0,2.1,0
		C390.2,109.6,390.2,178.4,390.2,247.3z"/>
</g>
</svg>
